{"scene":0,"asset":{"generator":"ImageToStl.com","version":"2.0"},"scenes":[{"name":"Scene","nodes":[0]}],"nodes":[{"name":"Node0","children":[1]},{"name":"Tree_Type1_01_mesh","children":[2]},{"name":"Node2","mesh":0}],"materials":[{"name":"_trees_normal-effect","pbrMetallicRoughness":{"baseColorFactor":[0.64,0.64,0.64,1.0],"metallicFactor":0.5,"roughnessFactor":0.609375},"emissiveFactor":[0.0,0.0,0.0],"doubleSided":true}],"meshes":[{"name":"Mesh0","primitives":[{"indices":3,"material":0,"attributes":{"POSITION":0,"NORMAL":1,"TEXCOORD_0":2}}]}],"accessors":[{"bufferView":0,"componentType":5126,"count":120,"type":"VEC3","min":[-0.3354365,-0.33570883,-0.0060642967],"max":[0.2765176,0.33570886,1.335004]},{"bufferView":1,"componentType":5126,"count":120,"type":"VEC3"},{"bufferView":2,"componentType":5126,"count":120,"type":"VEC2"},{"bufferView":3,"componentType":5123,"count":522,"type":"SCALAR"}],"bufferViews":[{"target":34962,"buffer":0,"byteLength":1440,"byteOffset":0},{"target":34962,"buffer":0,"byteLength":1440,"byteOffset":1440},{"target":34962,"buffer":0,"byteLength":960,"byteOffset":2880},{"target":34963,"buffer":0,"byteLength":1044,"byteOffset":3840}],"buffers":[{"byteLength":4884,"uri":"data:application/octet-stream;base64,"}]}