{"scene":0,"asset":{"generator":"ImageToStl.com","version":"2.0"},"scenes":[{"name":"Scene","nodes":[0]}],"nodes":[{"name":"Node0","children":[1]},{"name":"Tree_Type1_03_mesh","children":[2]},{"name":"Node2","mesh":0}],"materials":[{"name":"_trees_normal-effect","pbrMetallicRoughness":{"baseColorFactor":[0.64,0.64,0.64,1.0],"metallicFactor":0.5,"roughnessFactor":0.609375},"emissiveFactor":[0.0,0.0,0.0],"doubleSided":true}],"meshes":[{"name":"Mesh0","primitives":[{"indices":3,"material":0,"attributes":{"POSITION":0,"NORMAL":1,"TEXCOORD_0":2}}]}],"accessors":[{"bufferView":0,"componentType":5126,"count":168,"type":"VEC3","min":[-0.8695067,-1.00858,0.009760852],"max":[0.877406,1.00858,3.078464]},{"bufferView":1,"componentType":5126,"count":168,"type":"VEC3"},{"bufferView":2,"componentType":5126,"count":168,"type":"VEC2"},{"bufferView":3,"componentType":5123,"count":738,"type":"SCALAR"}],"bufferViews":[{"target":34962,"buffer":0,"byteLength":2016,"byteOffset":0},{"target":34962,"buffer":0,"byteLength":2016,"byteOffset":2016},{"target":34962,"buffer":0,"byteLength":1344,"byteOffset":4032},{"target":34963,"buffer":0,"byteLength":1476,"byteOffset":5376}],"buffers":[{"byteLength":6852,"uri":"data:application/octet-stream;base64,"}]}